<?xml version="1.0" encoding="UTF-8" standalone="no"?>
<svg
   width="16"
   height="16"
   fill="currentColor"
   class="bi bi-lock-fill"
   viewBox="0 0 16 16"
   version="1.1"
   id="svg1"
   sodipodi:docname="lock-fill2.svg"
   inkscape:version="1.3.2 (091e20e, 2023-11-25)"
   xmlns:inkscape="http://www.inkscape.org/namespaces/inkscape"
   xmlns:sodipodi="http://sodipodi.sourceforge.net/DTD/sodipodi-0.dtd"
   xmlns="http://www.w3.org/2000/svg"
   xmlns:svg="http://www.w3.org/2000/svg">
  <defs
     id="defs1" />
  <sodipodi:namedview
     id="namedview1"
     pagecolor="#ffffff"
     bordercolor="#000000"
     borderopacity="0.25"
     inkscape:showpageshadow="2"
     inkscape:pageopacity="0.0"
     inkscape:pagecheckerboard="0"
     inkscape:deskcolor="#d1d1d1"
     inkscape:zoom="24.830417"
     inkscape:cx="1.6512006"
     inkscape:cy="6.2020706"
     inkscape:window-width="1312"
     inkscape:window-height="449"
     inkscape:window-x="0"
     inkscape:window-y="37"
     inkscape:window-maximized="0"
     inkscape:current-layer="svg1" />
  <path
     d="m 7.5924415,7.2912649 c 1.1045695,0 -0.062041,-0.1021792 1.0393049,-0.1865041 L 10.997554,7 H 6 L 5.7263493,7.0798834 C 4.6660341,7.3894079 6.1284713,7.2843853 7.2330408,7.2843853 M 11,7 10.054661,7.0301287 C 6.0566928,7.1575474 9.6217891,7.0390249 5.6219334,7.0052514 L 5,7 C 3.8954305,7 3,7.8954305 3,9 v 5 c 0,1.104569 0.8954305,2 2,2 h 6 c 1.104569,0 2,-0.895431 2,-2 V 9 C 13,7.8954305 12.104569,7 11,7"
     id="path1"
     sodipodi:nodetypes="csccsccsscssssssc"
     style="fill:#000000" />
</svg>
